<svg xmlns="http://www.w3.org/2000/svg" xmlns:xlink="http://www.w3.org/1999/xlink" width="500" zoomAndPan="magnify" viewBox="0 0 375 374.999991" height="500" preserveAspectRatio="xMidYMid meet" version="1.0"><defs><clipPath id="ce7ed3a879"><path d="M 0 7.800781 L 375 7.800781 L 375 367.199219 L 0 367.199219 Z M 0 7.800781 " clip-rule="nonzero"/></clipPath><clipPath id="7d1f1c0e07"><path d="M 187.5 7.800781 C 83.945312 7.800781 0 88.253906 0 187.5 C 0 286.746094 83.945312 367.199219 187.5 367.199219 C 291.054688 367.199219 375 286.746094 375 187.5 C 375 88.253906 291.054688 7.800781 187.5 7.800781 Z M 187.5 7.800781 " clip-rule="nonzero"/></clipPath><clipPath id="4aefbaf96b"><path d="M 0 0.800781 L 375 0.800781 L 375 360.199219 L 0 360.199219 Z M 0 0.800781 " clip-rule="nonzero"/></clipPath><clipPath id="a7e764977c"><path d="M 187.5 0.800781 C 83.945312 0.800781 0 81.253906 0 180.5 C 0 279.746094 83.945312 360.199219 187.5 360.199219 C 291.054688 360.199219 375 279.746094 375 180.5 C 375 81.253906 291.054688 0.800781 187.5 0.800781 Z M 187.5 0.800781 " clip-rule="nonzero"/></clipPath><clipPath id="ce3221338c"><rect x="0" width="375" y="0" height="361"/></clipPath><clipPath id="7a1e2377d5"><path d="M 51.019531 51.019531 L 324.019531 51.019531 L 324.019531 324.019531 L 51.019531 324.019531 Z M 51.019531 51.019531 " clip-rule="nonzero"/></clipPath></defs><g clip-path="url(#ce7ed3a879)"><g clip-path="url(#7d1f1c0e07)"><g transform="matrix(1, 0, 0, 1, 0, 7)"><g clip-path="url(#ce3221338c)"><g clip-path="url(#4aefbaf96b)"><g clip-path="url(#a7e764977c)"><path fill="#ffffff" d="M 0 0.800781 L 374.839844 0.800781 L 374.839844 360.199219 L 0 360.199219 Z M 0 0.800781 " fill-opacity="1" fill-rule="nonzero"/></g></g></g></g></g></g><g clip-path="url(#7a1e2377d5)"><path fill="#27386d" d="M 264.097656 51.019531 L 111.007812 51.019531 C 77.894531 51.019531 51.019531 77.894531 51.019531 111.007812 L 51.019531 264.03125 C 51.019531 297.140625 77.894531 324.019531 111.007812 324.019531 L 264.03125 324.019531 C 297.207031 324.019531 324.019531 297.140625 324.019531 264.03125 L 324.019531 111.007812 C 324.019531 77.828125 297.140625 51.019531 264.03125 51.019531 Z M 131.644531 273.917969 C 119.566406 273.917969 109.746094 264.097656 109.746094 251.953125 C 109.746094 239.808594 119.566406 230.054688 131.644531 230.054688 C 143.722656 230.054688 153.609375 239.875 153.609375 251.953125 C 153.609375 264.03125 143.789062 273.917969 131.644531 273.917969 Z M 209.484375 212.933594 L 130.449219 212.933594 C 117.375 212.933594 106.757812 202.316406 106.757812 189.242188 C 106.757812 176.171875 117.375 165.554688 130.449219 165.554688 L 209.484375 165.554688 C 214.660156 165.554688 218.90625 161.304688 218.90625 156.128906 C 218.90625 150.953125 214.660156 146.707031 209.484375 146.707031 L 130.449219 146.707031 C 117.375 146.707031 106.757812 136.089844 106.757812 123.015625 C 106.757812 109.945312 117.375 99.328125 130.449219 99.328125 L 209.484375 99.328125 C 240.804688 99.328125 266.285156 124.808594 266.285156 156.128906 C 266.285156 187.453125 240.804688 213 209.484375 213 Z M 209.484375 212.933594 " fill-opacity="1" fill-rule="nonzero"/></g></svg>