<svg xmlns="http://www.w3.org/2000/svg" xmlns:xlink="http://www.w3.org/1999/xlink" width="500" zoomAndPan="magnify" viewBox="0 0 375 374.999991" height="500" preserveAspectRatio="xMidYMid meet" version="1.0"><defs><clipPath id="3eedfdcffa"><path d="M 37.5 37.5 L 337.5 37.5 L 337.5 337.5 L 37.5 337.5 Z M 37.5 37.5 " clip-rule="nonzero"/></clipPath></defs><rect x="-37.5" width="450" fill="#ffffff" y="-37.499999" height="449.999989" fill-opacity="1"/><rect x="-37.5" width="450" fill="#ffffff" y="-37.499999" height="449.999989" fill-opacity="1"/><g clip-path="url(#3eedfdcffa)"><path fill="#27386d" d="M 271.652344 37.5 L 103.421875 37.5 C 67.035156 37.5 37.5 67.035156 37.5 103.421875 L 37.5 271.578125 C 37.5 307.964844 67.035156 337.5 103.421875 337.5 L 271.578125 337.5 C 308.039062 337.5 337.5 307.964844 337.5 271.578125 L 337.5 103.421875 C 337.5 66.960938 307.964844 37.5 271.578125 37.5 Z M 126.101562 282.445312 C 112.828125 282.445312 102.035156 271.652344 102.035156 258.308594 C 102.035156 244.960938 112.828125 234.242188 126.101562 234.242188 C 139.371094 234.242188 150.238281 245.035156 150.238281 258.308594 C 150.238281 271.578125 139.445312 282.445312 126.101562 282.445312 Z M 211.636719 215.429688 L 124.789062 215.429688 C 110.421875 215.429688 98.753906 203.761719 98.753906 189.394531 C 98.753906 175.03125 110.421875 163.363281 124.789062 163.363281 L 211.636719 163.363281 C 217.324219 163.363281 221.992188 158.695312 221.992188 153.007812 C 221.992188 147.320312 217.324219 142.652344 211.636719 142.652344 L 124.789062 142.652344 C 110.421875 142.652344 98.753906 130.984375 98.753906 116.621094 C 98.753906 102.253906 110.421875 90.585938 124.789062 90.585938 L 211.636719 90.585938 C 246.054688 90.585938 274.058594 118.589844 274.058594 153.007812 C 274.058594 187.425781 246.054688 215.503906 211.636719 215.503906 Z M 211.636719 215.429688 " fill-opacity="1" fill-rule="nonzero"/></g></svg>